<svg width="93" height="66" viewBox="0 0 93 66" fill="none" xmlns="http://www.w3.org/2000/svg">
<path d="M27.0655 29.9801C26.5132 29.9811 26.0646 29.5343 26.0636 28.982C26.0626 28.4297 26.5094 27.9811 27.0617 27.9801L27.0655 29.9801ZM40.5032 28.955L40.5051 29.955L40.5032 28.955ZM22.6526 10.4994L23.0949 9.60249L22.6526 10.4994ZM61.7321 30.0186L61.7548 31.0184L61.7321 30.0186ZM61.7813 29.7965L61.339 30.6934L61.7813 29.7965ZM50.457 29.2744L61.7094 29.0189L61.7548 31.0184L50.5024 31.2739L50.457 29.2744ZM61.339 30.6934L22.2103 11.3962L23.0949 9.60249L62.2236 28.8996L61.339 30.6934ZM23.2251 9.9801L41.2929 28.048L39.8787 29.4622L21.8109 11.3943L23.2251 9.9801ZM40.5051 29.955L27.0655 29.9801L27.0617 27.9801L40.5014 27.955L40.5051 29.955ZM41.2929 28.048C41.996 28.751 41.4994 29.9532 40.5051 29.955L40.5014 27.955C39.7156 27.9565 39.3231 28.9066 39.8787 29.4622L41.2929 28.048ZM22.2103 11.3962C23.1061 11.838 23.9313 10.6863 23.2251 9.9801L21.8109 11.3943C20.9173 10.5008 21.9614 9.0435 23.0949 9.60249L22.2103 11.3962ZM61.7094 29.0189C60.7862 29.0398 60.5108 30.2849 61.339 30.6934L62.2236 28.8996C63.2715 29.4164 62.9229 30.9918 61.7548 31.0184L61.7094 29.0189Z" fill="url(#paint0_linear_8745_78)"/>
<path d="M48.7684 31.316C48.2162 31.3273 47.7595 30.8888 47.7482 30.3366C47.7369 29.7845 48.1754 29.3277 48.7276 29.3164L48.7684 31.316ZM53.8039 31.2133L48.7684 31.316L48.7276 29.3164L53.7631 29.2137L53.8039 31.2133Z" fill="#EB5870"/>
<path d="M62.8586 35.9437C63.4109 35.9427 63.8595 36.3896 63.8605 36.9418C63.8615 37.4941 63.4146 37.9427 62.8624 37.9437L62.8586 35.9437ZM49.4208 36.9688L49.419 35.9688L49.4208 36.9688ZM67.2715 55.4245L66.8292 56.3213L67.2715 55.4245ZM28.1919 35.9052L28.1692 34.9055L28.1919 35.9052ZM28.1428 36.1273L28.5851 35.2305L28.1428 36.1273ZM39.4671 36.6494L28.2146 36.9049L28.1692 34.9055L39.4217 34.65L39.4671 36.6494ZM28.5851 35.2305L67.7138 54.5276L66.8292 56.3213L27.7005 37.0242L28.5851 35.2305ZM66.699 55.9437L48.6311 37.8759L50.0453 36.4616L68.1132 54.5295L66.699 55.9437ZM49.419 35.9688L62.8586 35.9437L62.8624 37.9437L49.4227 37.9688L49.419 35.9688ZM48.6311 37.8759C47.9281 37.1728 48.4247 35.9707 49.419 35.9688L49.4227 37.9688C50.2085 37.9673 50.601 37.0173 50.0453 36.4616L48.6311 37.8759ZM67.7138 54.5276C66.818 54.0858 65.9928 55.2375 66.699 55.9437L68.1132 54.5295C69.0068 55.4231 67.9627 56.8803 66.8292 56.3213L67.7138 54.5276ZM28.2146 36.9049C29.1378 36.884 29.4133 35.6389 28.5851 35.2305L27.7005 37.0242C26.6526 36.5074 27.0011 34.932 28.1692 34.9055L28.2146 36.9049Z" fill="url(#paint1_linear_8745_78)"/>
<path d="M41.1557 34.6078C41.7079 34.5965 42.1646 35.035 42.1759 35.5872C42.1872 36.1394 41.7487 36.5961 41.1965 36.6074L41.1557 34.6078ZM36.1201 34.7106L41.1557 34.6078L41.1965 36.6074L36.1609 36.7102L36.1201 34.7106Z" fill="#23BAE9"/>
<path d="M8.028 21.8V47H1.548V21.8H8.028ZM41.1128 21.8V27.236H28.8728V47H22.3928V27.236H10.1528V21.8H41.1128ZM87.9781 33.32C90.1381 34.652 91.5421 36.74 91.5421 39.656C91.5421 43.904 89.0581 47 83.3341 47H60.2941V21.8H82.4701C88.1941 21.8 89.9581 24.716 89.9581 28.424C89.9581 30.188 89.2381 31.916 87.9781 33.32ZM66.7741 26.48V31.7H80.1301H80.1661C81.8941 31.7 83.4781 31.7 83.4781 29.072C83.4781 26.48 81.8941 26.48 80.1301 26.48H66.7741ZM81.7501 41.996C83.4781 41.996 85.0621 41.996 85.0621 39.332C85.0621 36.668 83.4781 36.668 81.7501 36.668H66.7741V41.996H81.7501Z" fill="#050715"/>
<defs>
<linearGradient id="paint0_linear_8745_78" x1="32.114" y1="18.0717" x2="64.6596" y2="32.4577" gradientUnits="userSpaceOnUse">
<stop stop-color="#313261"/>
<stop offset="0.11732" stop-color="teal"/>
<stop offset="0.262132" stop-color="#B179EC"/>
<stop offset="0.425667" stop-color="#D069CA"/>
<stop offset="0.602439" stop-color="#E35D93"/>
<stop offset="0.783533" stop-color="#F5505C"/>
<stop offset="1" stop-color="#F5505C"/>
</linearGradient>
<linearGradient id="paint1_linear_8745_78" x1="33" y1="49.9999" x2="70.431" y2="52.1832" gradientUnits="userSpaceOnUse">
<stop stop-color="#313261"/>
<stop offset="0.11732" stop-color="teal"/>
<stop offset="0.262132" stop-color="#B179EC"/>
<stop offset="0.425667" stop-color="#D069CA"/>
<stop offset="0.602439" stop-color="#E35D93"/>
<stop offset="0.783533" stop-color="#F5505C"/>
<stop offset="1" stop-color="#F5505C"/>
</linearGradient>
</defs>
</svg>
