<svg width="93" height="66" viewBox="0 0 93 66" fill="none" xmlns="http://www.w3.org/2000/svg">
<path d="M27.0655 29.9801C26.5132 29.9811 26.0646 29.5343 26.0636 28.982C26.0626 28.4297 26.5094 27.9811 27.0617 27.9801L27.0655 29.9801ZM40.5032 28.955L40.5051 29.955L40.5032 28.955ZM22.6526 10.4994L23.0949 9.60249L22.6526 10.4994ZM61.7321 30.0186L61.7548 31.0184L61.7321 30.0186ZM61.7813 29.7965L61.339 30.6934L61.7813 29.7965ZM50.457 29.2744L61.7094 29.0189L61.7548 31.0184L50.5024 31.2739L50.457 29.2744ZM61.339 30.6934L22.2103 11.3962L23.0949 9.60249L62.2236 28.8996L61.339 30.6934ZM23.2251 9.9801L41.2929 28.048L39.8787 29.4622L21.8109 11.3943L23.2251 9.9801ZM40.5051 29.955L27.0655 29.9801L27.0617 27.9801L40.5014 27.955L40.5051 29.955ZM41.2929 28.048C41.996 28.751 41.4994 29.9532 40.5051 29.955L40.5014 27.955C39.7156 27.9565 39.3231 28.9066 39.8787 29.4622L41.2929 28.048ZM22.2103 11.3962C23.1061 11.838 23.9313 10.6863 23.2251 9.9801L21.8109 11.3943C20.9173 10.5008 21.9614 9.0435 23.0949 9.60249L22.2103 11.3962ZM61.7094 29.0189C60.7862 29.0398 60.5108 30.2849 61.339 30.6934L62.2236 28.8996C63.2715 29.4164 62.9229 30.9918 61.7548 31.0184L61.7094 29.0189Z" fill="url(#paint0_linear_8695_25)"/>
<path d="M48.7684 31.316C48.2162 31.3273 47.7595 30.8888 47.7482 30.3366C47.7369 29.7845 48.1754 29.3277 48.7276 29.3164L48.7684 31.316ZM53.8039 31.2133L48.7684 31.316L48.7276 29.3164L53.7631 29.2137L53.8039 31.2133Z" fill="#EB5870"/>
<path d="M62.8586 35.9437C63.4109 35.9427 63.8595 36.3896 63.8605 36.9418C63.8615 37.4941 63.4146 37.9427 62.8624 37.9437L62.8586 35.9437ZM49.4208 36.9688L49.419 35.9688L49.4208 36.9688ZM67.2715 55.4245L66.8292 56.3213L67.2715 55.4245ZM28.1919 35.9052L28.1692 34.9055L28.1919 35.9052ZM28.1428 36.1273L28.5851 35.2305L28.1428 36.1273ZM39.4671 36.6494L28.2146 36.9049L28.1692 34.9055L39.4217 34.65L39.4671 36.6494ZM28.5851 35.2305L67.7138 54.5276L66.8292 56.3213L27.7005 37.0242L28.5851 35.2305ZM66.699 55.9437L48.6311 37.8759L50.0453 36.4616L68.1132 54.5295L66.699 55.9437ZM49.419 35.9688L62.8586 35.9437L62.8624 37.9437L49.4227 37.9688L49.419 35.9688ZM48.6311 37.8759C47.9281 37.1728 48.4247 35.9707 49.419 35.9688L49.4227 37.9688C50.2085 37.9673 50.601 37.0173 50.0453 36.4616L48.6311 37.8759ZM67.7138 54.5276C66.818 54.0858 65.9928 55.2375 66.699 55.9437L68.1132 54.5295C69.0068 55.4231 67.9627 56.8803 66.8292 56.3213L67.7138 54.5276ZM28.2146 36.9049C29.1378 36.884 29.4133 35.6389 28.5851 35.2305L27.7005 37.0242C26.6526 36.5074 27.0011 34.932 28.1692 34.9055L28.2146 36.9049Z" fill="url(#paint1_linear_8695_25)"/>
<path d="M41.1557 34.6078C41.7079 34.5965 42.1646 35.035 42.1759 35.5872C42.1872 36.1394 41.7487 36.5961 41.1965 36.6074L41.1557 34.6078ZM36.1201 34.7106L41.1557 34.6078L41.1965 36.6074L36.1609 36.7102L36.1201 34.7106Z" fill="#23BAE9"/>
<path d="M8.028 21.8H1.548V47H8.028V21.8ZM41.1128 21.8H10.1528V27.236H22.3928V47H28.8728V27.236H41.1128V21.8ZM87.9781 33.32C89.2381 31.916 89.9581 30.188 89.9581 28.424C89.9581 24.716 88.1941 21.8 82.4701 21.8H60.2941V47H83.3341C89.0581 47 91.5421 43.904 91.5421 39.656C91.5421 36.74 90.1381 34.652 87.9781 33.32ZM66.7741 26.48H80.1301C81.8941 26.48 83.4781 26.48 83.4781 29.072C83.4781 31.7 81.8941 31.7 80.1661 31.7H80.1301H66.7741V26.48ZM81.7501 41.996H66.7741V36.668H81.7501C83.4781 36.668 85.0621 36.668 85.0621 39.332C85.0621 41.996 83.4781 41.996 81.7501 41.996Z" fill="white"/>
<path d="M8.028 21.8H9.028V20.8H8.028V21.8ZM1.548 21.8V20.8H0.548V21.8H1.548ZM1.548 47H0.548V48H1.548V47ZM8.028 47V48H9.028V47H8.028ZM8.028 20.8H1.548V22.8H8.028V20.8ZM0.548 21.8V47H2.548V21.8H0.548ZM1.548 48H8.028V46H1.548V48ZM9.028 47V21.8H7.028V47H9.028ZM41.1128 21.8H42.1128V20.8H41.1128V21.8ZM10.1528 21.8V20.8H9.15284V21.8H10.1528ZM10.1528 27.236H9.15284V28.236H10.1528V27.236ZM22.3928 27.236H23.3928V26.236H22.3928V27.236ZM22.3928 47H21.3928V48H22.3928V47ZM28.8728 47V48H29.8728V47H28.8728ZM28.8728 27.236V26.236H27.8728V27.236H28.8728ZM41.1128 27.236V28.236H42.1128V27.236H41.1128ZM41.1128 20.8H10.1528V22.8H41.1128V20.8ZM9.15284 21.8V27.236H11.1528V21.8H9.15284ZM10.1528 28.236H22.3928V26.236H10.1528V28.236ZM21.3928 27.236V47H23.3928V27.236H21.3928ZM22.3928 48H28.8728V46H22.3928V48ZM29.8728 47V27.236H27.8728V47H29.8728ZM28.8728 28.236H41.1128V26.236H28.8728V28.236ZM42.1128 27.236V21.8H40.1128V27.236H42.1128ZM87.9781 33.32L87.2339 32.6521L86.4344 33.5429L87.4532 34.1712L87.9781 33.32ZM60.2941 21.8V20.8H59.2941V21.8H60.2941ZM60.2941 47H59.2941V48H60.2941V47ZM66.7741 26.48V25.48H65.7741V26.48H66.7741ZM66.7741 31.7H65.7741V32.7H66.7741V31.7ZM66.7741 41.996H65.7741V42.996H66.7741V41.996ZM66.7741 36.668V35.668H65.7741V36.668H66.7741ZM88.7223 33.9879C90.1261 32.4237 90.9581 30.4642 90.9581 28.424H88.9581C88.9581 29.9118 88.3501 31.4083 87.2339 32.6521L88.7223 33.9879ZM90.9581 28.424C90.9581 26.4275 90.4838 24.4744 89.0785 23.0253C87.6678 21.5708 85.4908 20.8 82.4701 20.8V22.8C85.1734 22.8 86.7403 23.4872 87.6427 24.4177C88.5504 25.3536 88.9581 26.7125 88.9581 28.424H90.9581ZM82.4701 20.8H60.2941V22.8H82.4701V20.8ZM59.2941 21.8V47H61.2941V21.8H59.2941ZM60.2941 48H83.3341V46H60.2941V48ZM83.3341 48C86.3715 48 88.7065 47.1761 90.2832 45.6365C91.8614 44.0955 92.5421 41.9722 92.5421 39.656H90.5421C90.5421 41.5878 89.9808 43.1365 88.886 44.2055C87.7897 45.2759 86.0207 46 83.3341 46V48ZM92.5421 39.656C92.5421 36.3576 90.9268 33.9635 88.503 32.4688L87.4532 34.1712C89.3494 35.3405 90.5421 37.1224 90.5421 39.656H92.5421ZM66.7741 27.48H80.1301V25.48H66.7741V27.48ZM80.1301 27.48C80.5828 27.48 80.9594 27.481 81.2958 27.5153C81.6306 27.5495 81.8516 27.611 82.0004 27.6892C82.1266 27.7555 82.2233 27.8443 82.3026 28.0084C82.3921 28.1937 82.4781 28.5173 82.4781 29.072H84.4781C84.4781 28.3307 84.3661 27.6823 84.1035 27.1386C83.8307 26.5737 83.4211 26.1765 82.9308 25.9188C82.4631 25.673 81.9573 25.5725 81.499 25.5257C81.0423 25.479 80.5594 25.48 80.1301 25.48V27.48ZM82.4781 29.072C82.4781 29.6371 82.3917 29.9699 82.3003 30.1623C82.2188 30.3338 82.1204 30.4243 81.9972 30.4904C81.8518 30.5684 81.636 30.63 81.3083 30.6644C80.9784 30.699 80.6099 30.7 80.1661 30.7V32.7C80.5862 32.7 81.0637 32.701 81.5169 32.6535C81.9722 32.6057 82.4764 32.5031 82.943 32.2526C83.4318 31.9902 83.8373 31.5879 84.1069 31.0203C84.3665 30.4736 84.4781 29.8209 84.4781 29.072H82.4781ZM80.1661 30.7H80.1301V32.7H80.1661V30.7ZM80.1301 30.7H66.7741V32.7H80.1301V30.7ZM67.7741 31.7V26.48H65.7741V31.7H67.7741ZM81.7501 40.996H66.7741V42.996H81.7501V40.996ZM67.7741 41.996V36.668H65.7741V41.996H67.7741ZM66.7741 37.668H81.7501V35.668H66.7741V37.668ZM81.7501 37.668C82.1941 37.668 82.5619 37.669 82.8909 37.704C83.2175 37.7387 83.4319 37.8009 83.5761 37.8794C83.7439 37.9707 84.0621 38.2018 84.0621 39.332H86.0621C86.0621 37.7982 85.5883 36.6973 84.532 36.1226C84.0643 35.8681 83.5587 35.7638 83.1023 35.7152C82.6483 35.667 82.1701 35.668 81.7501 35.668V37.668ZM84.0621 39.332C84.0621 40.4622 83.7439 40.6933 83.5761 40.7846C83.4319 40.8631 83.2175 40.9253 82.8909 40.96C82.5619 40.995 82.1941 40.996 81.7501 40.996V42.996C82.1701 42.996 82.6483 42.997 83.1023 42.9488C83.5587 42.9002 84.0643 42.7959 84.532 42.5414C85.5883 41.9667 86.0621 40.8658 86.0621 39.332H84.0621Z" fill="#02232E"/>
<defs>
<linearGradient id="paint0_linear_8695_25" x1="32.114" y1="18.0717" x2="64.6596" y2="32.4577" gradientUnits="userSpaceOnUse">
<stop stop-color="#313261"/>
<stop offset="0.11732" stop-color="teal"/>
<stop offset="0.262132" stop-color="#B179EC"/>
<stop offset="0.425667" stop-color="#D069CA"/>
<stop offset="0.602439" stop-color="#E35D93"/>
<stop offset="0.783533" stop-color="#F5505C"/>
<stop offset="1" stop-color="#F5505C"/>
</linearGradient>
<linearGradient id="paint1_linear_8695_25" x1="33" y1="49.9999" x2="70.431" y2="52.1832" gradientUnits="userSpaceOnUse">
<stop stop-color="#313261"/>
<stop offset="0.11732" stop-color="teal"/>
<stop offset="0.262132" stop-color="#B179EC"/>
<stop offset="0.425667" stop-color="#D069CA"/>
<stop offset="0.602439" stop-color="#E35D93"/>
<stop offset="0.783533" stop-color="#F5505C"/>
<stop offset="1" stop-color="#F5505C"/>
</linearGradient>
</defs>
</svg>
