<svg xmlns="http://www.w3.org/2000/svg" width="220" height="66" viewBox="0 0 220 66">
  <g id="moishi_logo" data-name="moishi logo" transform="translate(0)">
    <path id="Fill_1" data-name="Fill 1" d="M46.892,66a26.329,26.329,0,0,1-11.637-3.141,26.012,26.012,0,0,1-7.412,2.756,17.293,17.293,0,0,1-3.2.309,13.955,13.955,0,0,1-3.809-.511A12.488,12.488,0,0,1,16.2,62.954a15.031,15.031,0,0,1-3.46-4.286A26.761,26.761,0,0,1,9.8,47.284a22.4,22.4,0,0,1-8.1-7.911,12.9,12.9,0,0,1-.569-11.695,19.467,19.467,0,0,1,3.754-5.57,31.852,31.852,0,0,1,5.654-4.684,24.4,24.4,0,0,1,1.936-9.332,13.568,13.568,0,0,1,5.346-6.2A13.812,13.812,0,0,1,24.746,0c.12,0,.242,0,.364,0A26.368,26.368,0,0,1,36.744,3.139,26.027,26.027,0,0,1,44.156.385a17.378,17.378,0,0,1,3.2-.309,13.929,13.929,0,0,1,3.8.51A12.474,12.474,0,0,1,55.8,3.045,15.006,15.006,0,0,1,59.26,7.334,26.736,26.736,0,0,1,62.2,18.716a22.4,22.4,0,0,1,8.1,7.913,12.884,12.884,0,0,1,.572,11.692,19.441,19.441,0,0,1-3.755,5.569,31.657,31.657,0,0,1-5.656,4.686,24.312,24.312,0,0,1-1.935,9.329,13.569,13.569,0,0,1-5.345,6.207A13.815,13.815,0,0,1,47.256,66C47.135,66,47.013,66,46.892,66ZM35.232,60.323h0a1.191,1.191,0,0,1,.552.137,24.9,24.9,0,0,0,11.112,3.163q.152,0,.3,0a11.469,11.469,0,0,0,5.759-1.553c3.936-2.36,6.058-7.256,6.137-14.16a1.184,1.184,0,0,1,.551-.991c4.458-2.847,7.584-6.145,9.04-9.535a10.568,10.568,0,0,0-.466-9.6,20.569,20.569,0,0,0-7.777-7.351,1.179,1.179,0,0,1-.581-.97A24.905,24.905,0,0,0,57.181,8.485a11.006,11.006,0,0,0-6.667-5.61,11.475,11.475,0,0,0-3.142-.419l-.267,0a21.14,21.14,0,0,0-9.757,3.064,1.2,1.2,0,0,1-1.13.019A24.889,24.889,0,0,0,25.1,2.376q-.15,0-.3,0a11.488,11.488,0,0,0-5.758,1.55c-3.935,2.361-6.058,7.26-6.138,14.165a1.194,1.194,0,0,1-.551.99C7.9,21.932,4.77,25.229,3.316,28.617a10.587,10.587,0,0,0,.464,9.6,20.59,20.59,0,0,0,7.78,7.352,1.182,1.182,0,0,1,.58.971,24.932,24.932,0,0,0,2.679,10.972,11,11,0,0,0,6.665,5.61,11.4,11.4,0,0,0,3.134.42l.277,0a21.13,21.13,0,0,0,9.758-3.064,1.186,1.186,0,0,1,.558-.154Z" fill="#2e2a26"/>
    <path id="Fill_4" data-name="Fill 4" d="M34.916,24a1.051,1.051,0,0,1-1.085-1.01V21.365a.086.086,0,0,1,0-.023V2.132a20.533,20.533,0,0,0-9.509,2.539,19.507,19.507,0,0,0-4.977,3.913c1.945,2.592,2.624,4.988,1.861,6.573a3.351,3.351,0,0,1-3.292,1.735h-.051a3.065,3.065,0,0,1-2.983-1.626c-.8-1.6-.164-4.1,1.689-6.665A21.531,21.531,0,0,0,10.829,4.19,16.939,16.939,0,0,0,2.912,2.119c-.236,0-.429,0-.608.012H2.167V21.343a.054.054,0,0,0,0,.01.065.065,0,0,1,0,.013v1.625A1.05,1.05,0,0,1,1.085,24,1.051,1.051,0,0,1,0,22.991V1.071A1.071,1.071,0,0,1,1.083.014H2.237C2.474,0,2.7,0,2.912,0a19.507,19.507,0,0,1,9.25,2.484A23.428,23.428,0,0,1,17.95,6.932a21.169,21.169,0,0,1,5.783-4.356A22.922,22.922,0,0,1,33.874.014h1.044A1.071,1.071,0,0,1,36,1.071v21.92A1.05,1.05,0,0,1,34.916,24ZM17.974,10.361c-1.22,1.882-1.454,3.355-1.144,3.981.061.119.223.436,1.035.436l.028,0c.737-.01,1.192-.184,1.354-.518C19.53,13.665,19.246,12.23,17.974,10.361Z" transform="translate(18 25)" fill="#2e2a26"/>
    <path id="Fill_6" data-name="Fill 6" d="M9,4.5A4.5,4.5,0,1,1,4.5,0,4.5,4.5,0,0,1,9,4.5" transform="translate(32 15)" fill="#d6af6d"/>
    <path id="Fill_8" data-name="Fill 8" d="M18.272,21V5.078h-.156l-7.4,12.772h-.565L2.759,5.078H2.6V21H0V0H2.884l7.649,13.218h.062L18.242,0H21V21Z" transform="translate(91 25)" fill="#2e2a26"/>
    <path id="Fill_10" data-name="Fill 10" d="M.631,8,0,3.2V0H3V3.2L2.373,8Z" transform="translate(118 26)" fill="#2e2a26"/>
    <path id="Fill_12" data-name="Fill 12" d="M11.47,22a11.638,11.638,0,0,1-8.147-3.218A10.792,10.792,0,0,1,0,10.955,10.662,10.662,0,0,1,3.323,3.206,11.676,11.676,0,0,1,11.47,0a11.769,11.769,0,0,1,8.164,3.206A10.622,10.622,0,0,1,23,10.955a10.75,10.75,0,0,1-3.366,7.827A11.73,11.73,0,0,1,11.47,22Zm0-19.535A8.579,8.579,0,0,0,5.358,4.957a8.413,8.413,0,0,0-2.475,6A8.637,8.637,0,0,0,17.612,17.02a8.506,8.506,0,0,0,2.507-6.065,8.374,8.374,0,0,0-2.507-6A8.67,8.67,0,0,0,11.47,2.465Z" transform="translate(125 25)" fill="#2e2a26"/>
    <path id="Fill_14" data-name="Fill 14" d="M0,21H3V0H0Z" transform="translate(154 25)" fill="#2e2a26"/>
    <path id="Fill_16" data-name="Fill 16" d="M16.85,4.962a11.438,11.438,0,0,0-7.62-2.59c-2.647,0-5.353.957-5.353,3.585,0,2.69,3.4,2.816,6.737,3.011C14.2,9.225,20,9.575,20,15.182,20,20.047,15.748,22,10.8,22A15.175,15.175,0,0,1,0,17.71l1.669-1.921a12.906,12.906,0,0,0,9.2,3.842c3.5,0,6.393-1.281,6.393-4.1,0-3.139-3.147-3.62-6.645-3.876-4.439-.287-9.477-.607-9.477-5.443C1.136,1.44,5.637,0,9.321,0A14.9,14.9,0,0,1,18.49,3.042Z" transform="translate(162 25)" fill="#2e2a26"/>
    <path id="Fill_17" data-name="Fill 17" d="M0,21V0H2.73V8.359H15.306V0H18V21H15.306V10.836H2.73V21Z" transform="translate(188 25)" fill="#2e2a26"/>
    <path id="Fill_18" data-name="Fill 18" d="M6.457,27H3.577V6.525h2.88V27ZM2.119,3.984h0L0,3.92,3.542,0H6.49L10,3.92l-2.117.063L5.031,1.473,2.119,3.983Z" transform="translate(210 19)" fill="#2e2a26"/>
  </g>
</svg>
